<?xml version="1.0" encoding="UTF-8"?>
<svg version="1.1" xmlns="http://www.w3.org/2000/svg" width="200" height="200">
<path d="M0 0 C3.89516653 2.24721146 5.10131239 4.0073623 7.25 7.875 C16.73387606 7.07523239 16.73387606 7.07523239 25.75 4.3125 C32.45225312 1.68594134 40.90987856 1.47699436 47.53515625 4.25 C51.41827116 6.57428173 53.65597839 9.04724121 55.0625 13.375 C55.2653324 16.07943201 54.9232049 18.25698094 54.25 20.875 C54.76949219 21.18953125 55.28898438 21.5040625 55.82421875 21.828125 C59.84705805 24.29685448 63.63302836 26.82318018 67.25 29.875 C67.95511719 29.56175781 68.66023437 29.24851562 69.38671875 28.92578125 C76.17914696 26.43306203 83.88603668 25.81388676 90.56640625 28.85546875 C94.66780785 31.33914814 97.42193999 34.48925955 99.25 38.875 C100.14593329 45.00068345 99.37453957 49.77631328 96.22265625 55.0859375 C93.99598123 59.18158874 94.26418383 61.60551025 95.58544922 66.1027832 C95.78412598 66.77011475 95.98280273 67.43744629 96.1875 68.125 C99.23199338 79.289427 99.4276672 90.27956916 96.39453125 101.54296875 C96.19670581 104.73490898 97.58622472 106.19492849 99.25 108.875 C100.62270509 116.39827517 99.3923639 122.4099291 95.078125 128.6796875 C90.8614473 133.74330474 86.98536343 136.81750359 80.375 137.75 C75.04071824 138.58548991 72.41211406 140.92348267 68.39453125 144.390625 C55.36257139 155.13372287 39.41506917 162.40860573 23.25 166.875 C23.1571875 168.0196875 23.1571875 168.0196875 23.0625 169.1875 C22.25 171.875 22.25 171.875 20.25 173.3125 C19.26 173.828125 18.27 174.34375 17.25 174.875 C14.92959879 176.41786326 12.63371884 177.99401882 10.3359375 179.5703125 C4.87191821 182.98788262 -1.53466803 182.29650833 -7.75 181.875 C-12.49429602 180.26532814 -15.58739748 177.7604831 -18.75 173.875 C-19.5625 170.5625 -19.5625 170.5625 -19.75 167.875 C-20.966875 167.9575 -22.18375 168.04 -23.4375 168.125 C-35.98687323 168.06589777 -47.44929464 162.01198696 -56.5 153.625 C-61.38576335 148.42213181 -65.67946099 142.08661703 -67.9375 135.3125 C-69.52888695 132.63510488 -69.52888695 132.63510488 -72.3828125 132.21484375 C-74.5174217 131.90278172 -76.6557609 131.61532293 -78.796875 131.3515625 C-82.65018937 130.72973134 -84.88849198 129.51639202 -87.75 126.875 C-90.6724897 122.49126546 -91.309524 119.09722401 -90.75 113.875 C-88.85017107 109.44804013 -86.52101909 106.20384552 -83.25 102.6875 C-82.4765625 101.84832031 -81.703125 101.00914063 -80.90625 100.14453125 C-78.75 97.875 -78.75 97.875 -77.0078125 96.453125 C-75.09209413 94.04955288 -75.26451717 91.83414811 -75.125 88.8125 C-74.83097166 83.03694332 -74.83097166 83.03694332 -73.75 80.875 C-74.45125 81.101875 -75.1525 81.32875 -75.875 81.5625 C-79.75155419 81.98386459 -81.51238445 80.9864884 -84.75 78.875 C-87.5800818 75.5732379 -88.42021532 72.41718203 -88.21484375 68.046875 C-86.36953406 59.4250919 -78.68729553 53.5439423 -71.75 48.875 C-63.75599066 44.25954762 -63.75599066 44.25954762 -59.7734375 43.49609375 C-57.53756376 42.954074 -57.53756376 42.954074 -55.43359375 40.92578125 C-52.25107594 38.49372616 -49.70483491 37.92041964 -45.8125 37.0625 C-40.63262528 35.64142442 -36.89222356 34.58661299 -33.7109375 30.1328125 C-32.04149027 26.21029015 -31.71862916 22.10024531 -31.21875 17.89453125 C-30.08904945 10.6173769 -24.39389553 6.08400683 -18.75 1.875 C-12.56579579 -1.95139215 -6.77387178 -2.03216153 0 0 Z " fill="#251F39" transform="translate(94.75,13.125)"/>
<path d="M0 0 C3 2 3 2 3.84375 5.203125 C4.07464317 6.55005799 4.29260378 7.89924948 4.5 9.25 C4.74563517 10.70342366 4.99306643 12.15654478 5.2421875 13.609375 C5.4273291 14.71055664 5.4273291 14.71055664 5.61621094 15.83398438 C6.19088082 19.07728667 6.9083498 22.28551074 7.625 25.5 C11.73063175 44.5449724 11.36824979 64.56027543 1.36328125 81.82421875 C-2.12152452 87.06317395 -5.77879707 91.46884286 -11 95 C-11.92941406 95.66773438 -12.85882813 96.33546875 -13.81640625 97.0234375 C-23.94360234 103.26475551 -32.42195379 102.16912272 -43.74804688 99.55273438 C-58.99979346 95.8092441 -70.8800449 85.23830287 -79 72 C-79.765625 69.11328125 -79.765625 69.11328125 -80 67 C-78.02 66.01 -76.04 65.02 -74 64 C-75.37671875 64.16048828 -75.37671875 64.16048828 -76.78125 64.32421875 C-91.38761853 65.75110139 -91.38761853 65.75110139 -97.58984375 60.70703125 C-99.98907203 58.22805023 -100.97844002 56.10191993 -101.6875 52.75 C-100.10315475 44.1081168 -94.81581277 38.1800177 -88 33 C-87.67 33.99 -87.34 34.98 -87 36 C-86.03929566 33.11788698 -85.89418117 31.30149956 -85.9375 28.3125 C-85.94652344 27.50425781 -85.95554687 26.69601563 -85.96484375 25.86328125 C-85.97644531 25.24839844 -85.98804688 24.63351563 -86 24 C-84.97648437 23.87625 -83.95296875 23.7525 -82.8984375 23.625 C-57.37739179 20.2266898 -32.9879043 11.94375156 -8.796875 3.44140625 C-7.80684479 3.09348022 -7.80684479 3.09348022 -6.79681396 2.73852539 C-4.47309539 1.91399257 -2.2077066 1.1038533 0 0 Z " fill="#473E53" transform="translate(108,77)"/>
<path d="M0 0 C3.89516653 2.24721146 5.10131239 4.0073623 7.25 7.875 C16.73387606 7.07523239 16.73387606 7.07523239 25.75 4.3125 C32.45225312 1.68594134 40.90987856 1.47699436 47.53515625 4.25 C51.41827116 6.57428173 53.65597839 9.04724121 55.0625 13.375 C55.2653324 16.07943201 54.9232049 18.25698094 54.25 20.875 C54.76949219 21.18953125 55.28898438 21.5040625 55.82421875 21.828125 C59.84705805 24.29685448 63.63302836 26.82318018 67.25 29.875 C67.95511719 29.56175781 68.66023437 29.24851562 69.38671875 28.92578125 C76.17914696 26.43306203 83.88603668 25.81388676 90.56640625 28.85546875 C94.66780785 31.33914814 97.42193999 34.48925955 99.25 38.875 C100.14593329 45.00068345 99.37453957 49.77631328 96.22265625 55.0859375 C93.99598123 59.18158874 94.26418383 61.60551025 95.58544922 66.1027832 C95.78412598 66.77011475 95.98280273 67.43744629 96.1875 68.125 C99.23199338 79.289427 99.4276672 90.27956916 96.39453125 101.54296875 C96.19670581 104.73490898 97.58622472 106.19492849 99.25 108.875 C100.62270509 116.39827517 99.3923639 122.4099291 95.078125 128.6796875 C90.8614473 133.74330474 86.98536343 136.81750359 80.375 137.75 C75.04071824 138.58548991 72.41211406 140.92348267 68.39453125 144.390625 C52.84112749 157.21231419 33.08069174 165.73928539 13.25 168.875 C10.76171875 168.47265625 10.76171875 168.47265625 9.25 167.875 C16.67709215 163.16839329 24.1266164 160.42284912 32.52270508 157.96826172 C39.87976276 155.80090206 46.02192163 152.55589564 52.375 148.3125 C53.02299561 147.87993896 53.67099121 147.44737793 54.33862305 147.00170898 C65.43572555 139.60982793 65.43572555 139.60982793 74.25 129.875 C76.4140625 128.70703125 76.4140625 128.70703125 78.875 127.6875 C79.69226563 127.34332031 80.50953125 126.99914062 81.3515625 126.64453125 C81.97804687 126.39058594 82.60453125 126.13664062 83.25 125.875 C82.12548273 128.8469385 81.02706209 131.20940687 79.25 133.875 C86.88849142 130.65879309 91.93930487 126.4001113 95.75 118.9375 C96.4287689 114.78004049 95.92971295 111.00838954 95.25 106.875 C94.90066406 107.3803125 94.55132812 107.885625 94.19140625 108.40625 C93.73636719 109.0559375 93.28132812 109.705625 92.8125 110.375 C92.13380859 111.34953125 92.13380859 111.34953125 91.44140625 112.34375 C90.85166016 113.10171875 90.85166016 113.10171875 90.25 113.875 C89.92 113.875 89.59 113.875 89.25 113.875 C88.8042522 109.0832112 89.56916156 105.82235526 91.25 101.3125 C95.31060649 88.88589219 94.61138975 73.42018673 91.25 60.875 C90.47269531 61.21273437 89.69539062 61.55046875 88.89453125 61.8984375 C86.06175911 62.94451288 85.01690424 62.89977935 82.25 61.875 C83.219375 61.1325 84.18875 60.39 85.1875 59.625 C87.27387361 57.90190085 88.15112479 57.13631306 89.125 54.5625 C89.16625 54.005625 89.2075 53.44875 89.25 52.875 C89.91 52.875 90.57 52.875 91.25 52.875 C93.60019786 48.32149164 93.96909905 43.89048833 93.25 38.875 C91.33117372 35.26760659 89.90245414 34.16793859 86.1875 32.5 C81.05732256 31.68568612 76.37284548 32.18948361 71.25 32.875 C71.58 33.205 71.91 33.535 72.25 33.875 C72.91 33.545 73.57 33.215 74.25 32.875 C76.34375 32.671875 76.34375 32.671875 78.75 32.625 C79.94109375 32.58632812 79.94109375 32.58632812 81.15625 32.546875 C81.8471875 32.65515625 82.538125 32.7634375 83.25 32.875 C85.25 35.875 85.25 35.875 85 38.8125 C84.05512179 42.67075269 83.28074146 44.94400771 80.3125 47.625 C78.25 48.875 78.25 48.875 75.25 48.875 C74.899375 48.05 74.54875 47.225 74.1875 46.375 C71.48900217 40.95218139 67.26482879 36.21821919 62.25 32.875 C61.074375 31.4209375 61.074375 31.4209375 59.875 29.9375 C57.63712467 27.18733996 55.53807849 25.34598248 52.25 23.875 C51.26 24.205 50.27 24.535 49.25 24.875 C49.42917969 24.22273438 49.60835938 23.57046875 49.79296875 22.8984375 C50.859506 18.51593899 51.5300811 15.74636342 50.125 11.375 C47.78514706 8.25519609 45.82279834 7.24787376 42.05859375 6.35546875 C35.2199072 5.510491 29.74643615 6.68893689 23.25 8.875 C27.43145126 10.26881709 29.28538139 8.58388733 33.25 6.875 C36.1875 6.6875 36.1875 6.6875 38.25 6.875 C39.24 8.855 39.24 8.855 40.25 10.875 C19.67741214 40.17535241 -25.00187485 59.00579265 -59.43359375 65.578125 C-62.53513477 66.07099191 -65.63282945 66.49582508 -68.75 66.875 C-70.18796728 67.08008323 -71.62557174 67.2877591 -73.0625 67.5 C-73.949375 67.62375 -74.83625 67.7475 -75.75 67.875 C-76.245 65.4 -76.245 65.4 -76.75 62.875 C-73.56387591 60.07742763 -71.04817173 58.01623924 -67.1875 56.1875 C-63.00123957 53.94748345 -61.88122241 50.44203808 -59.9609375 46.27734375 C-58.19431728 42.77259718 -56.24549743 40.56658288 -52.75 38.875 C-50.42714514 38.21211633 -48.09215574 37.59108031 -45.75 37 C-40.57481135 35.60793976 -36.88553354 34.57724696 -33.7109375 30.1328125 C-32.04149027 26.21029015 -31.71862916 22.10024531 -31.21875 17.89453125 C-30.08904945 10.6173769 -24.39389553 6.08400683 -18.75 1.875 C-12.56579579 -1.95139215 -6.77387178 -2.03216153 0 0 Z " fill="#000000" transform="translate(94.75,13.125)"/>
<path d="M0 0 C2.63804592 1.72986618 4.82953825 3.71787462 7 6 C6.21625 6.9075 5.4325 7.815 4.625 8.75 C0.89511406 13.27235463 -0.27284391 15.99743406 0 22 C0.66 22 1.32 22 2 22 C1.9175 20.948125 1.835 19.89625 1.75 18.8125 C2.04105144 14.3739655 2.80928297 13.01824584 6 10 C11.70076233 6.84957871 16.76138792 7.83265125 22.83203125 9.48828125 C26.50790503 10.35591993 30.24335461 10.66955434 34 11 C31.60278512 14.16774824 29.41094114 16.90942317 26 19 C25.01 19 24.02 19 23 19 C22.505 20.485 22.505 20.485 22 22 C19.63015139 23.55298074 17.3034674 24.91476279 14.8125 26.25 C13.64207153 26.88603149 13.64207153 26.88603149 12.44799805 27.53491211 C-47.94910015 60 -47.94910015 60 -65 60 C-64.57619232 55.05557708 -62.4624956 53.38555125 -59 50 C-57.996909 48.47379165 -57.01911615 46.93075995 -56.0625 45.375 C-52.44853614 39.84398424 -48.76263948 38.32995482 -42.4375 37 C-41.28701172 36.76216797 -41.28701172 36.76216797 -40.11328125 36.51953125 C-36.00567588 35.50971329 -33.66853926 33.99042853 -31.3125 30.5 C-30.879375 29.675 -30.44625 28.85 -30 28 C-29.34 27.01 -28.68 26.02 -28 25 C-27.69788333 23.11177079 -27.45449111 21.21378047 -27.25 19.3125 C-26.14001823 12.24276997 -23.6597818 7.76732083 -17.93359375 3.4375 C-11.90756929 -0.46887313 -7.0762258 -1.96496849 0 0 Z " fill="#1EAA4E" transform="translate(93,16)"/>
<path d="M0 0 C2.90509456 2.64099505 3.90661052 5.15046723 5.0625 8.875 C5.07421875 11.265625 5.07421875 11.265625 4.0625 13.875 C1.90682119 15.95583956 -0.52009901 17.57909651 -3 19.25 C-4.38619548 20.21968832 -5.77033278 21.19232587 -7.15234375 22.16796875 C-8.14596924 22.86672119 -8.14596924 22.86672119 -9.15966797 23.57958984 C-11.26108055 25.11077567 -13.16835537 26.78290407 -15.0625 28.5625 C-24.16596202 36.81012599 -36.01674429 42.19872705 -47 47.5 C-47.69616425 47.83761353 -48.39232849 48.17522705 -49.10958862 48.52307129 C-60.54888226 54.04449855 -72.1706374 59.00259742 -84 63.625 C-84.73542023 63.91513977 -85.47084045 64.20527954 -86.22854614 64.50421143 C-114.863058 75.73826658 -114.863058 75.73826658 -124.94140625 72.83203125 C-128.57422626 71.09026823 -129.93255647 69.41706691 -131.9375 65.875 C-132.59372237 61.79183857 -132.31531677 59.64706035 -130.5 55.9375 C-124.60584772 48.89326923 -117.36886031 42.68425353 -108.9375 38.875 C-108.2775 39.205 -107.6175 39.535 -106.9375 39.875 C-109.51493061 46.67004435 -112.29692927 49.24988973 -118.6953125 52.6484375 C-121.0498702 53.80003962 -121.0498702 53.80003962 -122.9375 55.875 C-122.9375 57.195 -122.9375 58.515 -122.9375 59.875 C-121.28011558 59.63945441 -119.6228005 59.40341165 -117.96582031 59.16503906 C-116.06910544 58.89381888 -114.17130539 58.63021823 -112.2734375 58.3671875 C-78.62326972 53.31092258 -33.23634051 35.32470692 -10.9375 8.875 C-9.10681228 6.39844812 -9.10681228 6.39844812 -7.9375 3.875 C-8.4325 2.39 -8.4325 2.39 -8.9375 0.875 C-14.22084984 1.27479506 -14.22084984 1.27479506 -19.125 3 C-21.6526067 4.22022392 -23.30240407 3.60697109 -25.9375 2.875 C-19.50632151 -3.55617849 -7.94258337 -3.04184044 0 0 Z " fill="#463D52" transform="translate(141.9375,20.125)"/>
<path d="M0 0 C3.31828276 2.40738161 4.77719414 3.49637825 6.1875 7.3125 C6.89751624 13.28263654 6.69350315 18.23484026 3.1875 23.3125 C-1.12281653 27.39595776 -4.73383965 29.10804161 -10.625 29.6875 C-15.314646 29.54565816 -19.01679489 28.03934801 -22.8125 25.3125 C-26.0357497 21.5107183 -27.71226727 18.32413631 -27.8125 13.3125 C-26.8698612 8.71713583 -25.31928739 5.84232318 -22.0625 2.4375 C-15.44328542 -1.890448 -7.25963997 -3.77501278 0 0 Z " fill="#007753" transform="translate(35.8125,19.6875)"/>
<path d="M0 0 C3.12504973 3.12504973 2.97077984 6.18183555 3.125 10.5 C3.01847156 13.48279628 2.70074382 16.10943175 2 19 C1.01 17.68 0.02 16.36 -1 15 C-8.89213503 23.10982493 -8.89213503 23.10982493 -12.4375 33.5625 C-11.90432024 37.75176956 -11.13257662 39.18068104 -8 42 C-0.63265537 46.17019507 6.90137161 44.87524239 15 44 C13 47 13 47 10.375 47.6875 C9.199375 47.8421875 9.199375 47.8421875 8 48 C13.80376307 61.37388882 23.79487864 71.27962849 36.97265625 77.375 C43.73395643 79.85020007 50.4928922 80.62509563 57.6171875 81.4296875 C61.90803378 82.15308653 64.52047578 83.45400667 68 86 C65.00468461 86.99843846 63.82744268 87.00732761 60.8125 86.5625 C58.9253125 86.2840625 58.9253125 86.2840625 57 86 C59.9341492 90.34254082 62.92405694 92.73587625 68 94 C77.81853843 95.37392517 86.50556749 91.59158514 95 87 C93.60424517 90.30686529 92.0752907 92.01575326 89.1875 94.125 C88.52105469 94.62257813 87.85460937 95.12015625 87.16796875 95.6328125 C80.71081105 99.70489393 74.45077976 99.60132397 67 99 C62.25570398 97.39032814 59.16260252 94.8854831 56 91 C55.1875 87.6875 55.1875 87.6875 55 85 C53.783125 85.0825 52.56625 85.165 51.3125 85.25 C38.76312677 85.19089777 27.30070536 79.13698696 18.25 70.75 C13.36423665 65.54713181 9.07053901 59.21161703 6.8125 52.4375 C5.22111305 49.76010488 5.22111305 49.76010488 2.3671875 49.33984375 C0.2325783 49.02778172 -1.9057609 48.74032293 -4.046875 48.4765625 C-7.90018937 47.85473134 -10.13849198 46.64139202 -13 44 C-15.9224897 39.61626546 -16.559524 36.22222401 -16 31 C-14.10017107 26.57304013 -11.77101909 23.32884552 -8.5 19.8125 C-7.33984375 18.55373047 -7.33984375 18.55373047 -6.15625 17.26953125 C-4 15 -4 15 -2.26171875 13.5859375 C-0.32624135 11.15310832 -0.4766669 8.86600428 -0.3125 5.8125 C-0.24675781 4.72582031 -0.18101563 3.63914062 -0.11328125 2.51953125 C-0.07589844 1.68808594 -0.03851563 0.85664062 0 0 Z " fill="#000000" transform="translate(20,96)"/>
<path d="M0 0 C-0.94626497 8.94414837 -7.20646117 14.73958208 -13.875 20.3125 C-21.61603628 26.19854141 -30.96942003 31.60791394 -41 31 C-38.39107386 28.0365508 -35.33518142 26.34314442 -31.9375 24.375 C-23.25902423 19.17641689 -13.63949387 12.27898774 -9 3 C-9.33 2.01 -9.66 1.02 -10 0 C-15.28334984 0.39979506 -15.28334984 0.39979506 -20.1875 2.125 C-22.7151067 3.34522392 -24.36490407 2.73197109 -27 2 C-20.39492948 -4.60507052 -7.76488951 -4.29810513 0 0 Z " fill="#7A6C83" transform="translate(143,21)"/>
<path d="M0 0 C3.31828276 2.40738161 4.77719414 3.49637825 6.1875 7.3125 C6.89751624 13.28263654 6.69350315 18.23484026 3.1875 23.3125 C-1.12281653 27.39595776 -4.73383965 29.10804161 -10.625 29.6875 C-15.314646 29.54565816 -19.01679489 28.03934801 -22.8125 25.3125 C-26.0357497 21.5107183 -27.71226727 18.32413631 -27.8125 13.3125 C-26.8698612 8.71713583 -25.31928739 5.84232318 -22.0625 2.4375 C-15.44328542 -1.890448 -7.25963997 -3.77501278 0 0 Z M-22.8125 8.125 C-24.28920499 11.35529216 -24.18186103 13.80357022 -23.8125 17.3125 C-22.01097506 21.4844525 -19.93417809 23.43900996 -15.8125 25.3125 C-11.4057528 26.5596926 -8.65116836 26.53054452 -4.5625 24.625 C-1.53208389 22.89584574 0.66104765 21.54498732 2.1875 18.3125 C3.26095201 14.29762043 3.63865591 11.38102716 2 7.5 C-1.15789436 3.60328686 -1.15789436 3.60328686 -5.7890625 1.9921875 C-12.55364691 1.64349758 -17.79722863 3.57991032 -22.8125 8.125 Z " fill="#000000" transform="translate(35.8125,19.6875)"/>
<path d="M0 0 C0.99 0.495 0.99 0.495 2 1 C0.47220875 2.4934939 -1.07346703 3.96868565 -2.625 5.4375 C-3.48351562 6.26121094 -4.34203125 7.08492187 -5.2265625 7.93359375 C-15.42494081 16.68668688 -27.57667849 22.54479533 -39.6875 28.125 C-40.43223572 28.4717276 -41.17697144 28.8184552 -41.9442749 29.1756897 C-53.1044938 34.36855112 -64.28410656 39.18997591 -76 43 C-77.52872529 43.51669207 -79.05736974 44.03362335 -80.5859375 44.55078125 C-82.05647454 45.03633593 -83.52779862 45.51951522 -85 46 C-85.99894287 46.33100708 -85.99894287 46.33100708 -87.01806641 46.66870117 C-90.27061264 47.68688584 -91.68039769 48.1065341 -95 47 C-89.70267801 44.20663781 -84.39872722 41.96218509 -78.77758789 39.90527344 C-66.57897245 35.43506138 -54.80292637 30.30071856 -43.0625 24.75 C-42.34161194 24.41029175 -41.62072388 24.0705835 -40.87799072 23.72058105 C-29.23282311 18.21912066 -17.85674024 12.57990953 -7.3125 5.125 C-6.59900391 4.62742187 -5.88550781 4.12984375 -5.15039062 3.6171875 C-3.43010029 2.41644794 -1.71451089 1.20897756 0 0 Z " fill="#000000" transform="translate(133,44)"/>
<path d="M0 0 C2.4375 0.8125 2.4375 0.8125 4.4375 3.8125 C4.6749843 9.36963263 4.38028409 14.32690082 1.375 19.0625 C0.735625 19.64 0.09625 20.2175 -0.5625 20.8125 C-4.87816167 20.33298204 -6.7644941 19.11014982 -9.5625 15.8125 C-11.13185594 12.67378812 -10.91451103 10.27394178 -10.5625 6.8125 C-4.67957566 -0.34240798 -4.67957566 -0.34240798 0 0 Z " fill="#73DA41" transform="translate(22.5625,23.1875)"/>
<path d="M0 0 C5.75 3.625 5.75 3.625 8 7 C7.21625 7.7425 6.4325 8.485 5.625 9.25 C2.63520953 12.2685435 2.63520953 12.2685435 1 16 C1.31126713 19.68203915 1.31126713 19.68203915 2 23 C1.34 23.33 0.68 23.66 0 24 C-0.40729228 26.32156597 -0.74438677 28.6568787 -1 31 C-2.32 31.33 -3.64 31.66 -5 32 C-8.01917315 28.43188628 -9.37719031 26.24296751 -9 21.5 C-8.11904147 16.20535026 -5.8230746 12.56986979 -1.75 9.0625 C0.76030024 6.10393186 0.28843949 3.74971332 0 0 Z " fill="#047954" transform="translate(92,16)"/>
<path d="M0 0 C2.34168764 3.51253146 2.49623677 4.86469356 2 9 C0.20006226 11.69990662 -1.083773 13.5418865 -4 15 C-11.22330097 15.46601942 -11.22330097 15.46601942 -14.5 13.5 C-14.995 13.005 -15.49 12.51 -16 12 C-15.49614177 7.59124045 -14.0886933 5.17449034 -11 2 C-7.33451998 -0.02566001 -4.15987204 -0.462208 0 0 Z " fill="#73DA41" transform="translate(52,54)"/>
<path d="M0 0 C0.66 0.33 1.32 0.66 2 1 C1.67 1.99 1.34 2.98 1 4 C1.309375 5.175625 1.309375 5.175625 1.625 6.375 C2 9 2 9 0.875 11.625 C-3.16249047 16.73915459 -8.70731302 18.25822943 -15 19 C-15.66 18.67 -16.32 18.34 -17 18 C-16.62429695 12.74015729 -14.84671222 9.49872114 -11 6 C-7.49435952 3.45789813 -4.11610103 1.37203368 0 0 Z " fill="#73DA41" transform="translate(84,15)"/>
<path d="M0 0 C3.10639164 2.07092776 3.84874457 3.28909949 4.625 6.9375 C3.90988875 10.44154512 2.67772005 12.02937679 -0.2109375 14.14453125 C-3.45722793 15.69679676 -5.69820677 15.12136374 -9 14 C-11.58094937 11.17708663 -12.01389559 9.69477972 -11.9375 5.875 C-11 3 -11 3 -9.375 1.125 C-6.02604821 -0.46134558 -3.65973254 -0.45746657 0 0 Z " fill="#000000" transform="translate(55,4)"/>
<path d="M0 0 C-10.05734852 7.74256196 -21.63111784 10.80419848 -33.75 13.8125 C-34.61270508 14.03172119 -35.47541016 14.25094238 -36.36425781 14.47680664 C-42.3241088 15.88712266 -47.88524862 16.25736861 -54 16 C-50.30854295 12.9960636 -47.18893486 12.35510252 -42.5625 11.75 C-35.46522231 10.66309281 -28.80074328 8.85625973 -22 6.5625 C-21.14092041 6.27407227 -20.28184082 5.98564453 -19.39672852 5.68847656 C-14.40566266 3.96245398 -9.6468881 1.99091469 -4.91015625 -0.34790039 C-3 -1 -3 -1 0 0 Z " fill="#7B6D84" transform="translate(76,66)"/>
<path d="M0 0 C0.66 0.33 1.32 0.66 2 1 C1.3709375 1.43570313 0.741875 1.87140625 0.09375 2.3203125 C-2.61185027 4.20282353 -5.30753301 6.09875726 -8 8 C-8.74894531 8.52464844 -9.49789063 9.04929687 -10.26953125 9.58984375 C-15.05567358 13.03989281 -19.30931312 16.61862625 -22 22 C-22.37387586 25.96308413 -22.38935825 28.29915515 -20.4375 31.8125 C-17.4524704 34.49137272 -14.88570366 35.17802423 -11 36 C-13.80704762 38.02107429 -15.00126404 37.99981942 -18.5 37.5 C-22.82098884 35.64814764 -24.03380213 34.2469874 -26 30 C-26.84740069 24.83085577 -26.33532419 21.97357487 -23.625 17.5 C-17.8323703 9.61332107 -9.25609563 3.25743366 0 0 Z " fill="#000000" transform="translate(33,57)"/>
<path d="M0 0 C0.845625 0.928125 1.69125 1.85625 2.5625 2.8125 C7.24625379 6.91562315 12.83614795 7.50988664 18.76953125 8.45703125 C22 9 22 9 24 10 C23.6875 11.9375 23.6875 11.9375 23 14 C17.35351452 15.88216183 12.27842253 15.2853677 6.8671875 13.04296875 C3.55172562 11.19102665 2.02994873 9.23523079 0 6 C-0.3125 2.625 -0.3125 2.625 0 0 Z " fill="#7B6D84" transform="translate(7,127)"/>
<path d="M0 0 C2.79799985 1.09921423 4.03550018 2.04466152 5.9375 4.4375 C8.09109938 7.11318408 10.08584249 8.2672577 13 10 C13.33 10.99 13.66 11.98 14 13 C10.26754127 14.86622936 6.06405791 14.55305987 2 14 C-0.84866526 12.65386602 -1.8946397 11.49318983 -4 9 C-4.625 6.4375 -4.625 6.4375 -4 4 C-2 1.6875 -2 1.6875 0 0 Z " fill="#000000" transform="translate(17,116)"/>
<path d="M0 0 C2.03532927 1.68135896 2.95378863 2.87456913 3.875 5.375 C4.04025496 8.84535412 3.12346347 10.2907535 1 13 C-1.7143741 15.05918035 -2.8054539 15.02244763 -6.25 14.625 C-7.61125 14.315625 -7.61125 14.315625 -9 14 C-9.31346682 10.00329808 -9.40395059 7.67325099 -7.3125 4.1875 C-4.93334668 1.93694956 -3.10843279 0.94979891 0 0 Z " fill="#73DA41" transform="translate(104,24)"/>
<path d="M0 0 C3.18017466 3.05296768 6.01034536 6.32430074 8.828125 9.70703125 C15.14164534 16.37256442 21.9745035 21.02624434 30 25.4375 C30.96550781 25.97826172 31.93101563 26.51902344 32.92578125 27.07617188 C35.27924341 28.39271259 37.63716675 29.70037764 40 31 C37.08630478 32.45684761 35.56523716 31.47961188 32.5 30.5 C26.149964 28.29459828 21.23989222 25.15167726 16 21 C15.37480469 20.53851563 14.74960937 20.07703125 14.10546875 19.6015625 C8.15499872 14.95401706 1.25681273 7.64860316 0 0 Z " fill="#7B6D84" transform="translate(28,145)"/>
<path d="M0 0 C1.5 1.1875 1.5 1.1875 3 3 C3.04063832 4.66617115 3.042721 6.33388095 3 8 C3.66 8.66 4.32 9.32 5 10 C1.29787234 16.52279635 1.29787234 16.52279635 -1 18 C-4.6875 17.6875 -4.6875 17.6875 -8 17 C-8.33 17.66 -8.66 18.32 -9 19 C-10.65 18.67 -12.3 18.34 -14 18 C-14 17.34 -14 16.68 -14 16 C-13.45730469 15.76925781 -12.91460937 15.53851563 -12.35546875 15.30078125 C-7.77333716 13.21198973 -5.10984058 11.77490236 -3 7 C-2.72414063 6.38125 -2.44828125 5.7625 -2.1640625 5.125 C-1.41791714 3.42734818 -0.70605784 1.71471191 0 0 Z " fill="#007753" transform="translate(66,37)"/>
<path d="M0 0 C2.06132142 -0.10864945 4.12431321 -0.18588321 6.1875 -0.25 C7.33605469 -0.29640625 8.48460938 -0.3428125 9.66796875 -0.390625 C13.64596837 0.075729 15.23549294 1.15297034 18 4 C18.3125 6.75 18.3125 6.75 18 9 C12.04327229 9.49639398 8.02177765 8.26415547 3 5 C1.265625 3.48828125 1.265625 3.48828125 0 2 C0 1.34 0 0.68 0 0 Z " fill="#483F54" transform="translate(77,182)"/>
<path d="M0 0 C0.66 0.33 1.32 0.66 2 1 C1.00027082 3.62016934 0.38862925 4.7840146 -2.1015625 6.16796875 C-2.93429688 6.50441406 -3.76703125 6.84085937 -4.625 7.1875 C-10.831041 10.06984125 -15.90902131 14.81804262 -19 21 C-19.22467831 22.53668865 -19.40796805 24.07968054 -19.5625 25.625 C-19.64628906 26.44226563 -19.73007812 27.25953125 -19.81640625 28.1015625 C-19.87699219 28.72804688 -19.93757813 29.35453125 -20 30 C-22.55743808 27.75461007 -22.96634913 27.25478515 -23.4375 23.6875 C-22.58210692 16.47775832 -17.78207182 12.50210659 -12.51953125 7.97265625 C-8.62123908 4.92050501 -4.52432871 2.0440729 0 0 Z " fill="#7B6D84" transform="translate(33,59)"/>
<path d="M0 0 C0.66 0.66 1.32 1.32 2 2 C7.45351211 5.63567474 13.83218068 4.02796989 20 3 C17.29354488 4.80430342 15.26021271 5.70868167 12.21875 6.7265625 C11.29449219 7.0359375 10.37023437 7.3453125 9.41796875 7.6640625 C7.97357422 8.13972656 7.97357422 8.13972656 6.5 8.625 C5.53707031 8.94984375 4.57414062 9.2746875 3.58203125 9.609375 C2.19564453 10.06957031 2.19564453 10.06957031 0.78125 10.5390625 C-0.06373047 10.81959473 -0.90871094 11.10012695 -1.77929688 11.38916016 C-4 12 -4 12 -7 12 C-6.58332936 7.13884258 -4.49843869 5.23605579 -1 2 C-0.67 1.34 -0.34 0.68 0 0 Z " fill="#007753" transform="translate(35,64)"/>
<path d="M0 0 C0.66 0.33 1.32 0.66 2 1 C2.375 4.1875 2.375 4.1875 2 8 C-0.85484289 11.12040967 -2.61113838 12.84903678 -6.875 13.3125 C-7.926875 13.1578125 -7.926875 13.1578125 -9 13 C-9.8125 11.375 -9.8125 11.375 -10 9 C-7.19590185 4.95879972 -4.54746632 2.08937642 0 0 Z " fill="#DEED67" transform="translate(78,18)"/>
<path d="M0 0 C1.9375 0.75 1.9375 0.75 3.9375 2.75 C4.3008156 5.58386167 4.2943671 7.15522151 2.8125 9.625 C0.9375 10.75 0.9375 10.75 -2.1875 10.5 C-5.0625 9.75 -5.0625 9.75 -6.0625 8.75 C-5.8125 5.3125 -5.8125 5.3125 -5.0625 1.75 C-2.0625 -0.25 -2.0625 -0.25 0 0 Z " fill="#73DA41" transform="translate(74.0625,36.25)"/>
<path d="M0 0 C0.66 0 1.32 0 2 0 C4.6075429 3.54625835 6.08506369 6.57668809 6 11 C1.82959641 19.08520179 1.82959641 19.08520179 -2 21 C-4.125 20.0625 -4.125 20.0625 -6 19 C-5.195625 18.46375 -4.39125 17.9275 -3.5625 17.375 C0.40547638 13.55274027 -0.23923319 8.04794314 -0.04296875 2.88671875 C-0.02169922 1.45779297 -0.02169922 1.45779297 0 0 Z " fill="#1FAB4E" transform="translate(26,25)"/>
<path d="M0 0 C1.875 1.5 1.875 1.5 3 3 C1.75023244 6.65316671 1.32901247 7.78065836 -2 10 C-4.0625 9.8125 -4.0625 9.8125 -6 9 C-8.1519437 5.77208445 -8.20086443 4.71599191 -8 1 C-5.20129973 -0.39935013 -3.09501208 -0.25265405 0 0 Z " fill="#068152" transform="translate(54,7)"/>
<path d="M0 0 C1.875 0.9375 1.875 0.9375 3.25 2.75 C3.875 4.9375 3.875 4.9375 3.375 7.125 C1.875 8.9375 1.875 8.9375 -1.125 9.8125 C-2.115 9.85375 -3.105 9.895 -4.125 9.9375 C-6.125 7.9375 -6.125 7.9375 -6.5 5.5 C-6.125 2.9375 -6.125 2.9375 -4.375 1.0625 C-2.125 -0.0625 -2.125 -0.0625 0 0 Z " fill="#DCEC66" transform="translate(18.125,27.0625)"/>
<path d="M0 0 C-0.598125 0.268125 -1.19625 0.53625 -1.8125 0.8125 C-4.04327908 1.8893979 -4.04327908 1.8893979 -5.625 3.625 C-6.07875 4.07875 -6.5325 4.5325 -7 5 C-7.66 5 -8.32 5 -9 5 C-9.33 3.35 -9.66 1.7 -10 0 C-15.28334984 0.39979506 -15.28334984 0.39979506 -20.1875 2.125 C-22.7151067 3.34522392 -24.36490407 2.73197109 -27 2 C-20.39492948 -4.60507052 -7.76488951 -4.29810513 0 0 Z " fill="#473E52" transform="translate(143,21)"/>
<path d="M0 0 C9.405 1.485 9.405 1.485 19 3 C14.5 8.625 14.5 8.625 11 11 C10.34 10.67 9.68 10.34 9 10 C9.33 8.68 9.66 7.36 10 6 C8.35 5.67 6.7 5.34 5 5 C4.67 5.66 4.34 6.32 4 7 C2.02 3.535 2.02 3.535 0 0 Z " fill="#007754" transform="translate(108,24)"/>
<path d="M0 0 C1.32 0.66 2.64 1.32 4 2 C3.6875 4.875 3.6875 4.875 3 8 C0 10 0 10 -3 10 C-3.36923077 4.58461538 -3.36923077 4.58461538 -1.5 1.625 C-1.005 1.08875 -0.51 0.5525 0 0 Z " fill="#DEED67" transform="translate(98,27)"/>
<path d="M0 0 C0.99 0.66 1.98 1.32 3 2 C2.8125 4.375 2.8125 4.375 2 7 C-0.4375 8.375 -0.4375 8.375 -3 9 C-3.66 8.67 -4.32 8.34 -5 8 C-4.64950425 4.75791433 -4.43778819 3.38472296 -1.9375 1.1875 C-1.298125 0.795625 -0.65875 0.40375 0 0 Z " fill="#DEED67" transform="translate(43,55)"/>
<path d="M0 0 C3.12504973 3.12504973 2.97077984 6.18183555 3.125 10.5 C3.01847156 13.48279628 2.70074382 16.10943175 2 19 C1.34 18.34 0.68 17.68 0 17 C0 16.01 0 15.02 0 14 C-0.66 13.67 -1.32 13.34 -2 13 C-1.67 12.67 -1.34 12.34 -1 12 C-0.76572222 9.98405418 -0.58663876 7.961526 -0.4375 5.9375 C-0.35371094 4.83277344 -0.26992188 3.72804688 -0.18359375 2.58984375 C-0.12300781 1.73519531 -0.06242187 0.88054687 0 0 Z " fill="#060809" transform="translate(20,96)"/>
<path d="M0 0 C2.125 0.9375 2.125 0.9375 4 2 C3.75 3.875 3.75 3.875 3 6 C0.9375 7.25 0.9375 7.25 -1 8 C-2.0625 6.1875 -2.0625 6.1875 -3 4 C-2.67 3.01 -2.34 2.02 -2 1 C-1.34 0.67 -0.68 0.34 0 0 Z " fill="#73DA41" transform="translate(115,28)"/>
<path d="M0 0 C2.125 0.9375 2.125 0.9375 4 2 C3.75 3.875 3.75 3.875 3 6 C0.9375 7.25 0.9375 7.25 -1 8 C-1.33 5.69 -1.66 3.38 -2 1 C-1.34 0.67 -0.68 0.34 0 0 Z " fill="#73DA41" transform="translate(48,7)"/>
<path d="M0 0 C1.65 0.33 3.3 0.66 5 1 C4.6875 2.9375 4.6875 2.9375 4 5 C3.01 5.33 2.02 5.66 1 6 C0.34 5.67 -0.32 5.34 -1 5 C-0.67 3.35 -0.34 1.7 0 0 Z " fill="#73DA41" transform="translate(58,53)"/>
<path d="M0 0 C1.98 0.495 1.98 0.495 4 1 C4 2.32 4 3.64 4 5 C3.01 5.33 2.02 5.66 1 6 C0.34 5.67 -0.32 5.34 -1 5 C-0.67 3.35 -0.34 1.7 0 0 Z " fill="#73DA41" transform="translate(92,39)"/>
</svg>
